<svg width="27" height="22" viewBox="0 0 27 22" fill="none" xmlns="http://www.w3.org/2000/svg">
<path d="M6.5957 3.44922C8.35352 1.75 10.8047 0.646484 13.5098 0.646484C18.7832 0.646484 23.1094 4.64062 23.7539 9.5625H25.1699C26.0195 9.5625 26.2539 10.2559 25.7266 10.9688L23.1484 14.5332C22.7285 15.0996 22.0645 15.1094 21.6445 14.5332L19.0664 10.9688C18.5488 10.2559 18.793 9.5625 19.623 9.5625H21.1465C20.5312 6.02734 17.416 3.21484 13.5098 3.21484C11.4688 3.21484 9.61328 4.03516 8.26562 5.34375C7.52344 5.93945 6.77148 5.79297 6.35156 5.27539C5.94141 4.78711 5.95117 4.00586 6.5957 3.44922ZM1.26367 10.9395L3.85156 7.375C4.27148 6.80859 4.93555 6.79883 5.3457 7.375L7.93359 10.9492C8.45117 11.6621 8.19727 12.3457 7.36719 12.3457H5.87305C6.48828 15.8906 9.60352 18.7031 13.5098 18.7031C15.5605 18.7031 17.4258 17.873 18.7637 16.5645C19.5059 15.9688 20.248 16.1055 20.6777 16.6328C21.0781 17.1211 21.0684 17.9023 20.4336 18.4492C18.6758 20.1582 16.2148 21.2715 13.5098 21.2715C8.23633 21.2715 3.91016 17.2676 3.26562 12.3457H1.82031C0.980469 12.3457 0.746094 11.6523 1.26367 10.9395Z" />
</svg>
